<?xml version="1.0" encoding="utf-8"?>
<!-- Generator: Adobe Illustrator 22.0.1, SVG Export Plug-In . SVG Version: 6.00 Build 0)  -->
<svg version="1.1" id="Layer_1" xmlns="http://www.w3.org/2000/svg" xmlns:xlink="http://www.w3.org/1999/xlink" x="0px" y="0px"
	 viewBox="0 0 194 100" enable-background="new 0 0 194 100" xml:space="preserve">
<g>
	
		<linearGradient id="SVGID_1_" gradientUnits="userSpaceOnUse" x1="77.0335" y1="-62.0197" x2="104.7355" y2="-62.0197" gradientTransform="matrix(0.928 0.3489 -0.3546 0.9431 -75.9174 64.5555)">
		<stop  offset="0" style="stop-color:#38A2B2"/>
		<stop  offset="1" style="stop-color:#5A559A"/>
	</linearGradient>
	<path opacity="0.5" fill-rule="evenodd" clip-rule="evenodd" fill="url(#SVGID_1_)" d="M19.3,28.8c5.3-0.9,19.5,11.8,22.4,17.4
		c0.3,0.5,0,0.8-0.7,0.7C34.4,46,23.3,38,21.7,36.5C19.5,34.5,18.1,29.2,19.3,28.8"/>
	
		<linearGradient id="SVGID_2_" gradientUnits="userSpaceOnUse" x1="73.8779" y1="-66.1228" x2="104.358" y2="-66.1228" gradientTransform="matrix(0.928 0.3489 -0.3546 0.9431 -75.9174 64.5555)">
		<stop  offset="0" style="stop-color:#38A2B2"/>
		<stop  offset="1" style="stop-color:#5A559A"/>
	</linearGradient>
	<path opacity="0.5" fill-rule="evenodd" clip-rule="evenodd" fill="url(#SVGID_2_)" d="M19.4,20.3c7,0.1,19.6,18.1,22,26
		c0.1,0.3-0.2,0.4-0.5,0.3c-8.3-2.8-19.4-14.4-20.7-16.3C17.9,27.3,17.8,20.6,19.4,20.3"/>
	
		<linearGradient id="SVGID_3_" gradientUnits="userSpaceOnUse" x1="71.0282" y1="-71.7085" x2="104.4333" y2="-71.7085" gradientTransform="matrix(0.928 0.3489 -0.3546 0.9431 -75.9174 64.5555)">
		<stop  offset="0" style="stop-color:#38A2B2"/>
		<stop  offset="1" style="stop-color:#5A559A"/>
	</linearGradient>
	<path opacity="0.5" fill-rule="evenodd" clip-rule="evenodd" fill="url(#SVGID_3_)" d="M21.1,9c8.5,2.1,19.8,26.6,20.5,36.9
		c0.1,0.3-0.4,0.4-0.6,0.3C31.6,40.5,20.7,24.7,19.4,22C17.4,17.6,19.1,8.9,21.1,9"/>
	
		<linearGradient id="SVGID_4_" gradientUnits="userSpaceOnUse" x1="70.7625" y1="-76.3559" x2="104.7956" y2="-76.3559" gradientTransform="matrix(0.928 0.3489 -0.3546 0.9431 -75.9174 64.5555)">
		<stop  offset="0" style="stop-color:#38A2B2"/>
		<stop  offset="1" style="stop-color:#5A559A"/>
	</linearGradient>
	<path opacity="0.5" fill-rule="evenodd" clip-rule="evenodd" fill="url(#SVGID_4_)" d="M25.1,0c9.1,5.1,17.6,31.4,17,45.5
		c0,1.3-0.7,1.3-1,1C29.8,36.2,22.5,18.1,21.6,14.1C20.1,7.6,22.3-0.7,25.1,0"/>
	<path fill="none" d="M162,71.6c-0.6-0.5-1.4-0.6-2.3-0.6h-10.5v8.4h10.5c1,0,1.8-0.2,2.4-0.7c0.6-0.5,1.1-1,1.3-1.8
		c0.2-0.6,0.3-1.2,0.3-1.8c0-0.7-0.1-1.3-0.4-1.8C163,72.6,162.6,72.1,162,71.6z"/>
	<polygon fill="none" points="177.6,72.8 186.1,72.8 181.8,61.9 	"/>
	<path fill="none" d="M114.1,61c-1-1-2.3-1.9-3.7-2.5c-1.4-0.6-2.9-0.9-4.6-0.9c-1.6,0-3.1,0.3-4.5,0.9c-1.4,0.6-2.6,1.4-3.7,2.5
		c-1,1-1.9,2.3-2.5,3.7c-0.6,1.4-0.9,2.9-0.9,4.6c0,1.6,0.3,3.1,0.9,4.5c0.6,1.4,1.4,2.6,2.5,3.7c1,1,2.3,1.9,3.7,2.5
		c1.4,0.6,2.9,0.9,4.5,0.9c1.6,0,3.2-0.3,4.6-0.9c1.4-0.6,2.6-1.4,3.7-2.5c1-1,1.9-2.3,2.5-3.7c0.6-1.4,0.9-2.9,0.9-4.5
		c0-1.6-0.3-3.2-0.9-4.6C116,63.3,115.1,62.1,114.1,61z"/>
	<linearGradient id="SVGID_5_" gradientUnits="userSpaceOnUse" x1="70.1117" y1="69.2724" x2="192.3539" y2="69.2724">
		<stop  offset="0" style="stop-color:#38A2B2"/>
		<stop  offset="1" style="stop-color:#5A559A"/>
	</linearGradient>
	<path fill="url(#SVGID_5_)" d="M117.1,58.1c-1.5-1.5-3.2-2.6-5.1-3.4c-1.9-0.8-4-1.3-6.2-1.3c-2.2,0-4.3,0.4-6.2,1.3
		c-1.9,0.8-3.6,2-5.1,3.4c-1.4,1.5-2.6,3.1-3.4,5.1c-0.8,1.9-1.2,4-1.2,6.2c0,2.2,0.4,4.3,1.2,6.2c0.8,1.9,1.9,3.6,3.4,5.1
		c1.5,1.5,3.2,2.6,5.1,3.4c1.9,0.8,4,1.2,6.2,1.2c2.2,0,4.3-0.4,6.2-1.2c1.9-0.8,3.6-1.9,5.1-3.4c1.4-1.5,2.6-3.2,3.4-5.1
		c0.8-1.9,1.2-4,1.2-6.2c0-2.2-0.4-4.3-1.2-6.2C119.7,61.2,118.6,59.5,117.1,58.1z M116.6,73.8c-0.6,1.4-1.4,2.6-2.5,3.7
		c-1,1-2.3,1.9-3.7,2.5c-1.4,0.6-2.9,0.9-4.6,0.9c-1.6,0-3.1-0.3-4.5-0.9c-1.4-0.6-2.6-1.4-3.7-2.5c-1-1-1.9-2.3-2.5-3.7
		c-0.6-1.4-0.9-2.9-0.9-4.5c0-1.6,0.3-3.2,0.9-4.6c0.6-1.4,1.4-2.6,2.5-3.7c1-1,2.3-1.9,3.7-2.5c1.4-0.6,2.9-0.9,4.5-0.9
		c1.6,0,3.2,0.3,4.6,0.9c1.4,0.6,2.6,1.4,3.7,2.5c1,1,1.9,2.3,2.5,3.7c0.6,1.4,0.9,2.9,0.9,4.6C117.5,70.9,117.2,72.4,116.6,73.8z"
		/>
	<linearGradient id="SVGID_6_" gradientUnits="userSpaceOnUse" x1="70.1117" y1="68.7769" x2="192.3539" y2="68.7769">
		<stop  offset="0" style="stop-color:#38A2B2"/>
		<stop  offset="1" style="stop-color:#5A559A"/>
	</linearGradient>
	<path fill="url(#SVGID_6_)" d="M163.5,67.2c3.5-5,0.6-12.6-6.6-13.3c0,0-0.6,0-0.6,0l-9.2,0c-0.1,0-0.1,0-0.2,0
		c-0.6,0-1.1,0.2-1.5,0.6c-0.4,0.4-0.6,0.9-0.6,1.5v25.5c0,0.6,0.2,1.1,0.6,1.5c0.4,0.4,0.9,0.6,1.5,0.6l0,0l0,0h12.6h0.1
		c2,0,3.6-0.5,4.9-1.5c1.3-1,2.2-2.2,2.8-3.7c0.4-1.1,0.6-2.3,0.6-3.4c0-1.3-0.3-2.4-0.7-3.4C166.6,69.9,165.1,68.2,163.5,67.2z
		 M149.2,58l7.1,0c3.1,0,5.6,3.1,4.3,6.1c-0.9,2-2.7,2.8-4.2,2.8c-2.1,0-4.9,0-7.2,0V58z M163.4,76.9c-0.3,0.7-0.7,1.3-1.3,1.8
		c-0.6,0.5-1.4,0.7-2.4,0.7h-10.5V71h10.5c1,0,1.8,0.2,2.3,0.6c0.6,0.5,1,1,1.3,1.7c0.2,0.5,0.4,1.1,0.4,1.8
		C163.7,75.7,163.6,76.4,163.4,76.9z"/>
	<linearGradient id="SVGID_7_" gradientUnits="userSpaceOnUse" x1="70.1117" y1="68.7552" x2="192.3539" y2="68.7552">
		<stop  offset="0" style="stop-color:#38A2B2"/>
		<stop  offset="1" style="stop-color:#5A559A"/>
	</linearGradient>
	<path fill="url(#SVGID_7_)" d="M193.8,80.6l-10.2-25.3c-0.2-0.6-0.6-1-1.2-1.2c-0.6-0.2-1.1-0.2-1.6,0.1c-0.5,0.2-0.9,0.6-1.1,1.2
		L170,80.8c-0.2,0.6-0.2,1.1,0.1,1.6c0.2,0.5,0.6,0.9,1.2,1.1c0.6,0.2,1.1,0.1,1.6-0.1c0.5-0.2,0.9-0.6,1.1-1.2l2-5.2h11.9l2,5.1
		c0.2,0.5,0.6,0.9,1.1,1.1c0.5,0.2,1.1,0.2,1.6,0.1c0.6-0.2,0.9-0.6,1.2-1.1C194,81.7,194.1,81.1,193.8,80.6z M177.6,72.8l4.1-10.9
		l4.4,10.9H177.6z"/>
	<linearGradient id="SVGID_8_" gradientUnits="userSpaceOnUse" x1="70.1117" y1="68.7769" x2="192.3539" y2="68.7769">
		<stop  offset="0" style="stop-color:#38A2B2"/>
		<stop  offset="1" style="stop-color:#5A559A"/>
	</linearGradient>
	<path fill="url(#SVGID_8_)" d="M140.6,79.4h-9.9c-1,0-1.6-0.2-1.9-0.6c-0.2-0.3-0.4-0.6-0.4-1c-0.1-0.4-0.1-0.9-0.2-1.4v-0.1V56
		c0-0.6-0.2-1.1-0.6-1.5c-0.4-0.4-0.9-0.6-1.5-0.6c-0.6,0-1.1,0.2-1.5,0.6c-0.4,0.4-0.6,0.9-0.6,1.5v20.2v0.3
		c0.1,0.9,0.2,1.8,0.4,2.6c0.2,0.8,0.5,1.5,1,2.2c0.6,0.8,1.3,1.4,2.1,1.8c0.9,0.4,2,0.6,3.3,0.6h9.9c0.6,0,1.1-0.2,1.5-0.6
		c0.4-0.4,0.6-0.9,0.6-1.5c0-0.6-0.2-1.1-0.6-1.5C141.7,79.6,141.2,79.4,140.6,79.4z"/>
	<linearGradient id="SVGID_9_" gradientUnits="userSpaceOnUse" x1="73.8985" y1="69.2724" x2="196.1407" y2="69.2724">
		<stop  offset="0" style="stop-color:#38A2B2"/>
		<stop  offset="1" style="stop-color:#5A559A"/>
	</linearGradient>
	<path fill="url(#SVGID_9_)" d="M83.6,67c-0.1-0.2-0.2-0.4-0.4-0.6l6.4-8.8c0.3-0.5,0.5-1,0.4-1.6c-0.1-0.6-0.4-1-0.9-1.4
		c-0.5-0.4-1-0.5-1.6-0.4c-0.6,0.1-1,0.4-1.4,0.9l-8.9,12.2V56.6c0-0.6-0.2-1.1-0.6-1.5c-0.4-0.4-0.9-0.6-1.5-0.6
		c-0.6,0-1.1,0.2-1.5,0.6C73.2,55.5,73,56,73,56.6v25.6c0,0.6,0.2,1.1,0.6,1.5c0.4,0.4,0.9,0.6,1.5,0.6c0.6,0,1.1-0.2,1.5-0.6
		c0.4-0.4,0.6-0.9,0.6-1.5v-7.6l3.2-4.3l7.2,12.9c0.3,0.5,0.7,0.9,1.3,1c0.6,0.2,1.1,0.1,1.6-0.2c0.5-0.3,0.9-0.7,1-1.3
		c0.2-0.6,0.1-1.1-0.2-1.6L83.6,67z"/>
	<g>
		<linearGradient id="SVGID_10_" gradientUnits="userSpaceOnUse" x1="7.811" y1="46.0739" x2="54.053" y2="46.0739">
			<stop  offset="0" style="stop-color:#38A2B2"/>
			<stop  offset="1" style="stop-color:#5A559A"/>
		</linearGradient>
		<path fill="url(#SVGID_10_)" d="M39.5,51.8c8.2,3.4,15.8,2.5,14.4-0.4c-1.5-3.4-6.2-7.7-11.7-10.5c-0.1,0-0.2-0.1-0.3-0.1
			c0.1,1.7,0.2,3.3,0.1,4.8c0,0.5-0.1,0.9-0.3,1c-0.1,0.2-0.3,0.4-0.8,0.3c-5.2-0.7-13.2-5.8-17.1-8.7c-7.3,1.4-13.1,6-16.1,13.2
			C17.9,45.9,28,47.2,39.5,51.8z"/>
		<linearGradient id="SVGID_11_" gradientUnits="userSpaceOnUse" x1="0" y1="75.7064" x2="60.4222" y2="75.7064">
			<stop  offset="0" style="stop-color:#38A2B2"/>
			<stop  offset="1" style="stop-color:#5A559A"/>
		</linearGradient>
		<path fill="url(#SVGID_11_)" d="M45.1,69.2c-1.4,5.4-2.9,9.2-6.5,13.1c-3.3,3.7-8.2,6.8-16.9,7.4c-7.6,0.5-12.8-3.1-15.9-7.8
			c-4.3-6.6-4.5-21.5,2-30.5c-0.4,0.2-4.5,3.8-6.3,8.6C0,64.1-0.1,67.5,0,71.7c0.2,3.2,0.9,6.2,2,9.1c0,0.1,0,0.1,0,0.1l0,0
			c4.4,11.2,15.3,19.1,28,19.1c10.9,0,19.7-5.1,25.7-14.5c3.3-5.2,3.7-8.2,4.4-12.1C62.4,60.3,47.9,58.4,45.1,69.2z"/>
	</g>
	<linearGradient id="SVGID_12_" gradientUnits="userSpaceOnUse" x1="27.2018" y1="60.535" x2="37.3823" y2="60.535">
		<stop  offset="0" style="stop-color:#38A2B2"/>
		<stop  offset="1" style="stop-color:#5A559A"/>
	</linearGradient>
	<path opacity="0.5" fill="url(#SVGID_12_)" d="M29.8,56c-1.1,0.1-2.5,0.5-2.6,2.4c-0.1,1.4,1.5,3,4.3,3.3c2.5,0.3,3.7,1.6,4.3,2.9
		c0.3,0.8,1.5,0.6,1.6-0.2c0.1-1.1,0-2.3-0.5-3.4C35.7,58.1,32.7,55.8,29.8,56z"/>
	<linearGradient id="SVGID_13_" gradientUnits="userSpaceOnUse" x1="28.8538" y1="70.1591" x2="33.4063" y2="70.1591">
		<stop  offset="0" style="stop-color:#38A2B2"/>
		<stop  offset="1" style="stop-color:#5A559A"/>
	</linearGradient>
	<path opacity="0.5" fill="url(#SVGID_13_)" d="M33.1,69.1c0.6,1.1,0.2,2.5-0.9,3.1c-1.1,0.6-2.5,0.2-3.1-0.9
		c-0.6-1.1-0.2-2.5,0.9-3.1C31.1,67.6,32.5,68,33.1,69.1z"/>
	<linearGradient id="SVGID_14_" gradientUnits="userSpaceOnUse" x1="2.8759" y1="79.673" x2="31.0214" y2="79.673">
		<stop  offset="0" style="stop-color:#38A2B2"/>
		<stop  offset="1" style="stop-color:#5A559A"/>
	</linearGradient>
	<path opacity="0.5" fill="url(#SVGID_14_)" d="M31,78.5c0,5.6-15.5,13.5-23.9,3.6c-3.7-4.7-4.5-9.3-4.2-9.6c0,0.1,0.7,6.1,6.2,7.4
		c2.9,0.7,5.6-0.7,8.9-3.1C28.5,69.3,31,76.3,31,78.5z"/>
	<linearGradient id="SVGID_15_" gradientUnits="userSpaceOnUse" x1="2.8594" y1="82.077" x2="46.4304" y2="82.077">
		<stop  offset="0" style="stop-color:#38A2B2"/>
		<stop  offset="1" style="stop-color:#5A559A"/>
	</linearGradient>
	<path opacity="0.5" fill="url(#SVGID_15_)" d="M46.3,75.2c1.5,7.6-10.1,18.3-22.4,18.3c-21.2,0-21.3-18.5-21-20.9
		c0,0,1.1,5.6,4.4,8.7c2.9,2.2,6.6,3.7,11.3,2.8c13.1-2.5,13.9-12.8,21.2-13.5c1.9-0.2,3.3,0.3,4.3,1C45.4,72.6,46.1,74,46.3,75.2z"
		/>
</g>
</svg>
