<svg id="svg5358" xmlns="http://www.w3.org/2000/svg" viewBox="0 0 1017.91 220.7"><defs><style>.cls-1{fill:#777;}.cls-2{fill:#f35325;}.cls-3{fill:#81bc06;}.cls-4{fill:#05a6f0;}.cls-5{fill:#ffba08;}</style></defs><title>MIC_logo</title><path id="Microsoft" class="cls-1" d="M1017.91,64V46.16h-22.1V18.49l-0.74.23-20.76,6.35-0.41.12v21H941.15V34.48c0-5.44,1.22-9.6,3.61-12.37S950.54,18,954.88,18a23.58,23.58,0,0,1,9.6,2.19l0.81,0.36V1.78l-0.38-.14A37.44,37.44,0,0,0,952.64,0a36,36,0,0,0-17.41,4.18A29.75,29.75,0,0,0,923.29,16a35.2,35.2,0,0,0-4.23,17.33V46.16H903.67V64h15.39v75h22.09V64H973.9v47.64c0,19.62,9.25,29.56,27.51,29.56a45.08,45.08,0,0,0,9.38-1,25.88,25.88,0,0,0,6.83-2.17l0.29-.17v-18l-0.9.59a15.4,15.4,0,0,1-4.44,1.94,16.88,16.88,0,0,1-4.36.74c-4.28,0-7.44-1.15-9.4-3.43s-3-6.31-3-11.92V64h22.1ZM854.34,123.09c-8,0-14.34-2.66-18.79-7.9s-6.75-12.77-6.75-22.3c0-9.84,2.27-17.53,6.75-22.89s10.72-8,18.61-8c7.66,0,13.76,2.58,18.12,7.67s6.62,12.75,6.62,22.7-2.09,17.81-6.23,23-10.27,7.75-18.33,7.75m1-79.17c-15.3,0-27.45,4.48-36.11,13.32s-13,21.07-13,36.37c0,14.52,4.28,26.2,12.74,34.72s20,12.83,34.18,12.83c14.83,0,26.73-4.54,35.39-13.51s13-21.07,13-36c0-14.75-4.12-26.52-12.24-35s-19.55-12.75-34-12.75m-84.77,0c-10.4,0-19,2.66-25.59,7.91a25.23,25.23,0,0,0-10,20.58,28.79,28.79,0,0,0,2.15,11.5,23.11,23.11,0,0,0,6.6,8.62c2.93,2.41,7.44,4.94,13.43,7.51a100.11,100.11,0,0,1,11.17,5.2,15.52,15.52,0,0,1,4.92,4,9.07,9.07,0,0,1,1.37,5.26c0,6.23-4.67,9.26-14.27,9.26a39.21,39.21,0,0,1-12.08-2.21,45.4,45.4,0,0,1-12.37-6.27l-0.92-.66v21.27l0.34,0.16A54.78,54.78,0,0,0,747,139.71a62.84,62.84,0,0,0,12.51,1.45c11.29,0,20.38-2.67,27-8a25.73,25.73,0,0,0,10.06-21.07,24.23,24.23,0,0,0-5.41-15.94c-3.57-4.29-9.75-8.23-18.39-11.71-6.88-2.76-11.28-5.05-13.1-6.81a9.53,9.53,0,0,1-2.64-7.15,8,8,0,0,1,3.35-6.61c2.27-1.76,5.43-2.65,9.4-2.65A38.48,38.48,0,0,1,781,63a36,36,0,0,1,9.77,4.53l0.9,0.62V48l-0.35-.15A48.22,48.22,0,0,0,781.44,45a60.83,60.83,0,0,0-10.88-1.12m-93.14,79.17c-8,0-14.34-2.66-18.79-7.9s-6.75-12.76-6.75-22.3c0-9.84,2.27-17.53,6.75-22.89s10.71-8,18.61-8c7.66,0,13.75,2.58,18.12,7.67S702,82.41,702,92.36s-2.1,17.81-6.23,23-10.27,7.75-18.33,7.75m1-79.17c-15.3,0-27.45,4.48-36.11,13.32s-13,21.07-13,36.37c0,14.53,4.29,26.2,12.74,34.72s20,12.83,34.18,12.83c14.82,0,26.73-4.54,35.39-13.51s13-21.07,13-36c0-14.75-4.12-26.52-12.24-35s-19.55-12.75-34-12.75m-82.69,18.3V46.16H573.9v92.76h21.82V91.47c0-8.07,1.83-14.7,5.44-19.7a16.68,16.68,0,0,1,14.11-7.45,25.62,25.62,0,0,1,6.56,1,16.62,16.62,0,0,1,5.09,2.06L627.83,68V46l-0.35-.15a24.7,24.7,0,0,0-23.14,3.93c-3.69,3-6.36,7.23-8.39,12.44h-0.23Zm-60.89-18.3c-10,0-18.94,2.15-26.53,6.38a43,43,0,0,0-17.5,18c-4,7.68-6,16.65-6,26.66a49.18,49.18,0,0,0,5.84,23.89,41.06,41.06,0,0,0,16.33,16.51,48.6,48.6,0,0,0,23.85,5.8c10.37,0,19.22-2.07,26.32-6.16l0.29-.17v-20l-0.92.67a41,41,0,0,1-10.68,5.56,32.26,32.26,0,0,1-10.45,2c-8.56,0-15.43-2.68-20.42-8s-7.54-12.71-7.54-22.06,2.64-17,7.85-22.64S527.34,62,535.72,62c7.17,0,14.16,2.43,20.77,7.22l0.91,0.66V48.81l-0.29-.17A36,36,0,0,0,547,45.23a60.29,60.29,0,0,0-12.2-1.31m-65.07,2.24H447.93v92.76h21.82V46.16ZM459.07,6.64a13.14,13.14,0,0,0-9.3,3.64,12,12,0,0,0-3.9,9.1,11.69,11.69,0,0,0,3.85,8.92,13.29,13.29,0,0,0,9.34,3.55,13.46,13.46,0,0,0,9.38-3.55,11.64,11.64,0,0,0,3.9-8.92,12.25,12.25,0,0,0-3.8-9,13,13,0,0,0-9.49-3.74M404.62,39.31v99.6h22.27V9.48H396.07L356.9,105.62l-38-96.14H286.81V138.91h20.93V39.3h0.72l40.14,99.61h15.79l39.52-99.6h0.72Z"/><path id="Red" class="cls-2" d="M104.87,104.87H0V0H104.87V104.87Z"/><path id="Green" class="cls-3" d="M220.65,104.87H115.79V0H220.65V104.87Z"/><path id="Blue" class="cls-4" d="M104.86,220.7H0V115.83H104.86V220.7Z"/><path id="Yellow" class="cls-5" d="M220.65,220.7H115.79V115.83H220.65V220.7Z"/><path id="Innovation_Center_Armenia" data-name="Innovation Center Armenia" class="cls-1" d="M293.75,202.92h-7.24V160.56h7.24v42.36Zm36.6,0h-6.85v-17q0-8.48-6-8.48a6.55,6.55,0,0,0-5.17,2.35,8.71,8.71,0,0,0-2,5.92v17.25h-6.88V172.67h6.88v5h0.12a10.78,10.78,0,0,1,9.81-5.73q4.93,0,7.53,3.21t2.6,9.26v18.49Zm35.3,0H358.8v-17q0-8.48-6-8.48a6.55,6.55,0,0,0-5.17,2.35,8.71,8.71,0,0,0-2,5.92v17.25h-6.88V172.67h6.88v5h0.12a10.78,10.78,0,0,1,9.81-5.73q4.93,0,7.53,3.21t2.6,9.26v18.49Zm21.77,0.71q-7,0-11.18-4.24t-4.18-11.24q0-7.62,4.36-11.91T388.16,172q7.09,0,11,4.17t4,11.55q0,7.24-4.27,11.59T387.42,203.63Zm0.33-26.2a7.82,7.82,0,0,0-6.35,2.81q-2.33,2.81-2.33,7.74a11.06,11.06,0,0,0,2.36,7.49,7.94,7.94,0,0,0,6.32,2.73,7.53,7.53,0,0,0,6.22-2.69q2.17-2.69,2.17-7.65T394,180.15A7.5,7.5,0,0,0,387.75,177.43Zm48.45-4.76-11.7,30.25h-7.41l-11.14-30.25h7.44l6.71,21.15a19.74,19.74,0,0,1,.95,4.08h0.09a21.81,21.81,0,0,1,.83-4l7-21.27h7.21ZM463,202.92H456.4V198.2h-0.12a10,10,0,0,1-9.19,5.44,9.68,9.68,0,0,1-7-2.42,8.47,8.47,0,0,1-2.53-6.41q0-8.57,9.87-10l9-1.27q0-6.47-6.14-6.47a14.59,14.59,0,0,0-9.75,3.72v-6a21.26,21.26,0,0,1,11-2.84Q463,172,463,183.25v19.67Zm-6.62-14.86-6.35.89a10.06,10.06,0,0,0-4.45,1.43,4.19,4.19,0,0,0-1.49,3.68,4,4,0,0,0,1.37,3.15,5.32,5.32,0,0,0,3.68,1.23,6.79,6.79,0,0,0,5.18-2.2,7.8,7.8,0,0,0,2.05-5.54v-2.63Zm30.93,14.53a11.88,11.88,0,0,1-5.29,1q-8.8,0-8.8-8.45v-17.1h-5.05v-5.38h5.05v-7l6.85-2v9h7.24v5.38h-7.24v15.13a6,6,0,0,0,1,3.84,4,4,0,0,0,3.25,1.15,4.71,4.71,0,0,0,3-1v5.44Zm9.36-36.28a4.12,4.12,0,0,1-2.88-1.09,3.6,3.6,0,0,1-1.2-2.78,3.69,3.69,0,0,1,1.2-2.81,4.06,4.06,0,0,1,2.88-1.12,4.19,4.19,0,0,1,3,1.12,3.67,3.67,0,0,1,1.21,2.81,3.62,3.62,0,0,1-1.21,2.73A4.16,4.16,0,0,1,496.72,166.32Zm3.4,36.6h-6.85V172.67h6.85v30.25Zm22.36,0.71q-7,0-11.18-4.24t-4.18-11.24q0-7.62,4.36-11.91T523.22,172q7.09,0,11,4.17t4,11.55q0,7.24-4.27,11.59T522.48,203.63Zm0.33-26.2a7.82,7.82,0,0,0-6.35,2.81q-2.33,2.81-2.33,7.74a11.06,11.06,0,0,0,2.36,7.49,7.94,7.94,0,0,0,6.32,2.73,7.53,7.53,0,0,0,6.22-2.69q2.17-2.69,2.17-7.65T529,180.15A7.5,7.5,0,0,0,522.81,177.43Zm49.33,25.49h-6.85v-17q0-8.48-6-8.48a6.55,6.55,0,0,0-5.17,2.35,8.71,8.71,0,0,0-2,5.92v17.25H545.2V172.67h6.88v5h0.12A10.78,10.78,0,0,1,562,172q4.93,0,7.53,3.21t2.6,9.26v18.49Zm55.3-1.77a25.68,25.68,0,0,1-11.9,2.48q-9.22,0-14.77-5.82t-5.55-15.27q0-10.16,6.25-16.43a21.38,21.38,0,0,1,15.79-6.26,25.89,25.89,0,0,1,10.19,1.74v7A18.19,18.19,0,0,0,618,166a14.83,14.83,0,0,0-11.15,4.4q-4.27,4.4-4.27,11.76,0,7,4,11.15A13.88,13.88,0,0,0,617,197.49a18.78,18.78,0,0,0,10.4-2.84v6.5Zm32.88-11.49H639.7a8.71,8.71,0,0,0,2.58,6.47,9.61,9.61,0,0,0,6.78,2.28,15,15,0,0,0,8.89-2.9V201q-4.14,2.6-10.93,2.6t-10.47-4.12q-3.8-4.12-3.8-11.59a16.12,16.12,0,0,1,4.18-11.51A13.67,13.67,0,0,1,647.32,172q6.21,0,9.6,4t3.4,11.08v2.63Zm-6.62-4.84a8.84,8.84,0,0,0-1.74-5.75,5.83,5.83,0,0,0-4.73-2.05,6.65,6.65,0,0,0-5,2.16,9.84,9.84,0,0,0-2.53,5.64h14Zm40.09,18.11h-6.85v-17q0-8.48-6-8.48a6.55,6.55,0,0,0-5.17,2.35,8.71,8.71,0,0,0-2,5.92v17.25h-6.88V172.67h6.88v5h0.12a10.78,10.78,0,0,1,9.81-5.73q4.93,0,7.53,3.21t2.6,9.26v18.49Zm24.31-.33a11.88,11.88,0,0,1-5.29,1q-8.8,0-8.8-8.45v-17.1H699v-5.38H704v-7l6.85-2v9h7.24v5.38h-7.24v15.13a6,6,0,0,0,1,3.84,4,4,0,0,0,3.25,1.15,4.71,4.71,0,0,0,3-1v5.44Zm31.17-12.94H728.65a8.71,8.71,0,0,0,2.58,6.47A9.61,9.61,0,0,0,738,198.4a15,15,0,0,0,8.89-2.9V201q-4.14,2.6-10.93,2.6t-10.47-4.12q-3.8-4.12-3.8-11.59a16.12,16.12,0,0,1,4.18-11.51A13.67,13.67,0,0,1,736.27,172q6.21,0,9.6,4t3.4,11.08v2.63Zm-6.62-4.84a8.84,8.84,0,0,0-1.74-5.75,5.83,5.83,0,0,0-4.73-2.05,6.65,6.65,0,0,0-5,2.16,9.84,9.84,0,0,0-2.53,5.64h14Zm30.69-5.61a5.68,5.68,0,0,0-3.57-1,6.12,6.12,0,0,0-5.08,2.75,12.29,12.29,0,0,0-2,7.47v14.47H755.8V172.67h6.85v6.23h0.12a10.53,10.53,0,0,1,3.09-5,7,7,0,0,1,4.65-1.79,5.78,5.78,0,0,1,2.84.56v6.5Zm57,23.72h-7.71l-3.81-10.78H802.21l-3.66,10.78h-7.68l15.86-42.36h7.92ZM817,186.41l-5.88-16.9a19.8,19.8,0,0,1-.56-2.66h-0.12a17.32,17.32,0,0,1-.59,2.66L804,186.41h13Zm36-7.21a5.68,5.68,0,0,0-3.57-1,6.12,6.12,0,0,0-5.08,2.75,12.29,12.29,0,0,0-2,7.47v14.47h-6.85V172.67h6.85v6.23h0.12a10.53,10.53,0,0,1,3.09-5,7,7,0,0,1,4.65-1.79,5.78,5.78,0,0,1,2.84.56v6.5Zm50.07,23.72h-6.85V186.44q0-4.75-1.34-6.88a4.94,4.94,0,0,0-4.53-2.13,5.47,5.47,0,0,0-4.56,2.69,11,11,0,0,0-1.88,6.44v16.37H877v-17q0-8.45-6-8.45a5.38,5.38,0,0,0-4.56,2.54,11.2,11.2,0,0,0-1.79,6.59v16.37h-6.85V172.67h6.85v4.79h0.12a10.48,10.48,0,0,1,9.54-5.49,9,9,0,0,1,5.48,1.73,8.6,8.6,0,0,1,3.21,4.53q3.37-6.26,10-6.26,10,0,10,12.32v18.64Zm34-13.26H916.41a8.71,8.71,0,0,0,2.58,6.47,9.61,9.61,0,0,0,6.78,2.28,15,15,0,0,0,8.89-2.9V201q-4.14,2.6-10.93,2.6t-10.47-4.12q-3.8-4.12-3.8-11.59a16.12,16.12,0,0,1,4.18-11.51A13.67,13.67,0,0,1,924,172q6.21,0,9.6,4T937,187v2.63Zm-6.62-4.84a8.84,8.84,0,0,0-1.74-5.75,5.83,5.83,0,0,0-4.73-2.05,6.65,6.65,0,0,0-5,2.16,9.84,9.84,0,0,0-2.53,5.64h14Zm40.09,18.11h-6.85v-17q0-8.48-6-8.48a6.55,6.55,0,0,0-5.17,2.35,8.71,8.71,0,0,0-2,5.92v17.25h-6.88V172.67h6.88v5h0.12a10.78,10.78,0,0,1,9.81-5.73q4.93,0,7.53,3.21t2.6,9.26v18.49Zm11.82-36.6a4.12,4.12,0,0,1-2.88-1.09,3.6,3.6,0,0,1-1.2-2.78,3.69,3.69,0,0,1,1.2-2.81,4.06,4.06,0,0,1,2.88-1.12,4.19,4.19,0,0,1,3,1.12,3.67,3.67,0,0,1,1.21,2.81,3.62,3.62,0,0,1-1.21,2.73A4.16,4.16,0,0,1,982.32,166.32Zm3.4,36.6h-6.85V172.67h6.85v30.25Zm32.17,0h-6.65V198.2h-0.12a10,10,0,0,1-9.19,5.44,9.68,9.68,0,0,1-7-2.42,8.47,8.47,0,0,1-2.53-6.41q0-8.57,9.87-10l9-1.27q0-6.47-6.14-6.47a14.59,14.59,0,0,0-9.75,3.72v-6a21.26,21.26,0,0,1,11-2.84q11.46,0,11.46,11.29v19.67Zm-6.62-14.86-6.35.89a10.06,10.06,0,0,0-4.45,1.43,4.18,4.18,0,0,0-1.49,3.68,4,4,0,0,0,1.37,3.15,5.32,5.32,0,0,0,3.68,1.23,6.79,6.79,0,0,0,5.18-2.2,7.8,7.8,0,0,0,2.05-5.54v-2.63Z"/></svg>